<?xml version="1.0" encoding="UTF-8"?>
<svg id="Layer_1" data-name="Layer 1" xmlns="http://www.w3.org/2000/svg" viewBox="0 0 201.44 152.48">
  <defs>
    <style>
      .cls-1 {
        fill: #fff;
        stroke: #f42b41;
      }

      .cls-1, .cls-2, .cls-3 {
        stroke-miterlimit: 10;
      }

      .cls-2 {
        stroke-width: 6px;
      }

      .cls-2, .cls-3 {
        fill: none;
        stroke: #fff;
      }

      .cls-3 {
        stroke-width: 4px;
      }
    </style>
  </defs>
  <circle class="cls-2" cx="76.24" cy="76.24" r="73.24"/>
  <path class="cls-3" d="m76.24,3s-23.26,7.89-22.62,73.24c.43,43.31,9.61,62.16,15.75,69.96,3.1,3.93,8.87,4.3,12.43.79,6.92-6.83,16.55-24.45,16.74-69.67C98.84,6.56,76.24,3,76.24,3Z"/>
  <path class="cls-3" d="m65.83,3.74S22.56,24.24,24.75,77.32c2.19,53.08,34.91,70.27,34.91,70.27"/>
  <path class="cls-3" d="m88.87,4.09s40.95,22.52,38.56,73.23-34.76,70.31-34.76,70.31"/>
  <line class="cls-3" x1="14.01" y1="37.61" x2="138.47" y2="37.61"/>
  <line class="cls-3" x1="3" y1="76.24" x2="149.48" y2="76.24"/>
  <line class="cls-3" x1="15.16" y1="116.66" x2="137.32" y2="116.66"/>
  <path class="cls-1" d="m155.12,77.85v26.02c0,4.11-.93,7.2-2.79,9.25-1.86,2.06-4.33,3.08-7.39,3.08s-5.36-1.03-7.2-3.08c-1.84-2.06-2.77-5.14-2.77-9.25v-31.18c0-4.92-.17-8.74-.51-11.48-.34-2.72-1.25-4.97-2.72-6.71-1.49-1.74-3.82-2.62-7.02-2.62-6.41,0-10.62,2.2-12.65,6.61-2.03,4.41-3.06,10.72-3.06,18.92v26.46c0,4.06-.93,7.15-2.77,9.2-1.84,2.08-4.26,3.11-7.27,3.11s-5.38-1.03-7.27-3.11-2.84-5.14-2.84-9.2v-56c0-3.67.86-6.49,2.55-8.39,1.69-1.91,3.94-2.86,6.71-2.86s4.92.91,6.71,2.69,2.69,4.26,2.69,7.42v1.86c3.4-4.06,7.02-7.05,10.89-8.96,3.87-1.91,8.17-2.86,12.9-2.86s9.15.98,12.7,2.94c3.55,1.96,6.46,4.92,8.74,8.88,3.3-4.01,6.83-7,10.62-8.93,3.77-1.93,7.95-2.91,12.56-2.91,5.36,0,9.96,1.05,13.83,3.16s6.76,5.12,8.66,9.03c1.66,3.55,2.52,9.1,2.52,16.72v38.23c0,4.11-.93,7.2-2.79,9.25-1.86,2.06-4.33,3.08-7.39,3.08s-5.38-1.03-7.27-3.11c-1.88-2.08-2.84-5.14-2.84-9.2v-32.92c0-4.21-.17-7.59-.54-10.11-.37-2.55-1.32-4.65-2.91-6.39s-3.96-2.57-7.17-2.57c-2.57,0-5.04.76-7.34,2.3-2.33,1.54-4.11,3.57-5.41,6.17-1.44,3.3-2.15,9.13-2.15,17.5h0v-.02Z"/>
</svg>