<?xml version="1.0" encoding="UTF-8"?>
<svg id="Layer_1" data-name="Layer 1" xmlns="http://www.w3.org/2000/svg" viewBox="0 0 395.46 152.48">
  <defs>
    <style>
      .cls-1 {
        fill: #fff;
        stroke: #212121;
      }

      .cls-1, .cls-2, .cls-3 {
        stroke-miterlimit: 10;
      }

      .cls-2 {
        stroke-width: 6px;
      }

      .cls-2, .cls-3 {
        fill: none;
        stroke: #fff;
      }

      .cls-3 {
        stroke-width: 4px;
      }
    </style>
  </defs>
  <circle class="cls-2" cx="76.24" cy="76.24" r="73.24"/>
  <path class="cls-3" d="m76.24,3s-23.26,7.89-22.62,73.24c.48,48.48,11.92,66.31,17.8,72.29,2.01,2.05,5.22,2.42,7.58.79,6.74-4.65,19.32-20.25,19.54-72C98.84,6.56,76.24,3,76.24,3Z"/>
  <path class="cls-3" d="m65.83,3.74S22.56,24.24,24.75,77.32c2.19,53.08,35.28,70.78,35.28,70.78"/>
  <path class="cls-3" d="m88.87,4.09s40.95,22.52,38.56,73.23-34.76,70.31-34.76,70.31"/>
  <line class="cls-3" x1="14.01" y1="37.61" x2="138.47" y2="37.61"/>
  <line class="cls-3" x1="3" y1="76.24" x2="149.48" y2="76.24"/>
  <line class="cls-3" x1="15.16" y1="116.66" x2="137.32" y2="116.66"/>
  <g>
    <g>
      <path d="m81.42,76.83v10.63c0,1.68-.38,2.94-1.14,3.78s-1.77,1.26-3.02,1.26-2.19-.42-2.94-1.26c-.75-.84-1.13-2.1-1.13-3.78v-12.74c0-2.01-.07-3.57-.21-4.69-.14-1.11-.51-2.03-1.11-2.74-.61-.71-1.56-1.07-2.87-1.07-2.62,0-4.34.9-5.17,2.7-.83,1.8-1.25,4.38-1.25,7.73v10.81c0,1.66-.38,2.92-1.13,3.76-.75.85-1.74,1.27-2.97,1.27s-2.2-.42-2.97-1.27-1.16-2.1-1.16-3.76v-22.88c0-1.5.35-2.65,1.04-3.43.69-.78,1.61-1.17,2.74-1.17s2.01.37,2.74,1.1,1.1,1.74,1.1,3.03v.76c1.39-1.66,2.87-2.88,4.45-3.66,1.58-.78,3.34-1.17,5.27-1.17s3.74.4,5.19,1.2c1.45.8,2.64,2.01,3.57,3.63,1.35-1.64,2.79-2.86,4.34-3.65,1.54-.79,3.25-1.19,5.13-1.19,2.19,0,4.07.43,5.65,1.29s2.76,2.09,3.54,3.69c.68,1.45,1.03,3.72,1.03,6.83v15.62c0,1.68-.38,2.94-1.14,3.78s-1.77,1.26-3.02,1.26-2.2-.42-2.97-1.27c-.77-.85-1.16-2.1-1.16-3.76v-13.45c0-1.72-.07-3.1-.22-4.13-.15-1.04-.54-1.9-1.19-2.61s-1.62-1.05-2.93-1.05c-1.05,0-2.06.31-3,.94-.95.63-1.68,1.46-2.21,2.52-.59,1.35-.88,3.73-.88,7.15h0Z"/>
      <path d="m130.23,78.21h-15.64c.02,1.82.39,3.42,1.1,4.8.71,1.39,1.66,2.43,2.84,3.13,1.18.7,2.49,1.05,3.91,1.05.96,0,1.83-.11,2.62-.34.79-.22,1.56-.58,2.3-1.05.74-.48,1.43-.99,2.05-1.54.62-.55,1.44-1.29,2.43-2.23.41-.35,1-.53,1.76-.53.82,0,1.48.22,1.99.67.51.45.76,1.08.76,1.9,0,.72-.28,1.57-.85,2.53-.57.97-1.42,1.89-2.56,2.78s-2.58,1.63-4.31,2.21-3.72.88-5.96.88c-5.14,0-9.13-1.46-11.98-4.39-2.85-2.93-4.28-6.9-4.28-11.92,0-2.36.35-4.56,1.05-6.58s1.73-3.75,3.08-5.2c1.35-1.45,3.01-2.55,4.98-3.33,1.97-.77,4.16-1.16,6.56-1.16,3.12,0,5.81.66,8.04,1.98,2.24,1.32,3.91,3.02,5.02,5.11,1.11,2.09,1.67,4.22,1.67,6.39,0,2.01-.58,3.32-1.73,3.91-1.15.6-2.77.89-4.86.89v.04h0Zm-15.64-4.54h14.5c-.2-2.73-.93-4.78-2.21-6.14-1.28-1.36-2.96-2.04-5.05-2.04s-3.63.69-4.91,2.07-2.06,3.41-2.33,6.11Z"/>
      <path d="m144,60.69h.88v-4.8c0-1.29.03-2.3.1-3.03s.26-1.36.57-1.89c.31-.55.76-.99,1.35-1.33.59-.34,1.24-.51,1.96-.51,1.02,0,1.93.38,2.75,1.14.55.51.89,1.13,1.04,1.86s.22,1.77.22,3.12v5.45h2.93c1.13,0,2,.27,2.59.81.6.54.89,1.23.89,2.07,0,1.07-.42,1.83-1.27,2.26s-2.07.64-3.65.64h-1.49v14.71c0,1.25.04,2.21.13,2.89s.32,1.22.7,1.64c.38.42,1,.63,1.86.63.47,0,1.1-.08,1.9-.25.8-.17,1.43-.25,1.88-.25.64,0,1.23.26,1.74.78.52.52.78,1.16.78,1.92,0,1.29-.7,2.28-2.11,2.96s-3.43,1.03-6.06,1.03-4.39-.42-5.68-1.26-2.13-2-2.53-3.49c-.4-1.48-.6-3.47-.6-5.95v-15.35h-1.05c-1.15,0-2.03-.27-2.64-.82s-.91-1.24-.91-2.08.32-1.53.95-2.07c.63-.54,1.56-.81,2.77-.81v-.02h0Z"/>
      <path d="m185.02,87.99c-1.93,1.5-3.8,2.63-5.61,3.38s-3.83,1.13-6.08,1.13c-2.05,0-3.85-.41-5.41-1.22s-2.75-1.91-3.59-3.3-1.26-2.89-1.26-4.51c0-2.19.69-4.05,2.08-5.6,1.39-1.54,3.29-2.58,5.71-3.11.51-.12,1.77-.38,3.78-.79s3.74-.79,5.17-1.13c1.44-.34,2.99-.76,4.67-1.25-.1-2.11-.52-3.66-1.27-4.64-.75-.99-2.31-1.48-4.67-1.48-2.03,0-3.56.28-4.58.85-1.03.57-1.9,1.42-2.64,2.55-.73,1.13-1.25,1.88-1.55,2.24s-.95.54-1.95.54c-.9,0-1.67-.29-2.33-.86-.65-.58-.98-1.31-.98-2.21,0-1.41.5-2.77,1.49-4.1,1-1.33,2.55-2.42,4.66-3.28s4.74-1.29,7.88-1.29c3.52,0,6.28.42,8.29,1.25s3.43,2.14,4.26,3.94,1.25,4.18,1.25,7.15v4.78c0,1.31-.02,2.76-.04,4.37,0,1.5.25,3.07.75,4.7s.75,2.68.75,3.15c0,.82-.39,1.57-1.16,2.24s-1.65,1.01-2.62,1.01c-.82,0-1.63-.39-2.43-1.16-.8-.77-1.65-1.89-2.55-3.35h-.02Zm-.53-11.57c-1.17.43-2.88.88-5.11,1.36-2.24.48-3.78.83-4.64,1.05s-1.68.66-2.46,1.32c-.78.65-1.17,1.57-1.17,2.74s.46,2.24,1.38,3.09,2.12,1.27,3.6,1.27c1.58,0,3.04-.35,4.38-1.04,1.34-.69,2.32-1.59,2.94-2.68.72-1.21,1.08-3.2,1.08-5.98v-1.14h0Z"/>
      <path d="m229.08,65.84v23.23c0,2.66-.28,4.94-.85,6.86-.57,1.91-1.48,3.5-2.72,4.75-1.25,1.25-2.89,2.18-4.91,2.78s-4.54.91-7.54.91c-2.75,0-5.21-.39-7.38-1.16-2.17-.77-3.84-1.77-5.01-2.99s-1.76-2.48-1.76-3.76c0-.98.33-1.77,1-2.39.66-.62,1.46-.92,2.4-.92,1.17,0,2.2.52,3.08,1.55.43.53.87,1.06,1.33,1.6s.97,1,1.52,1.38,1.23.66,2.01.85c.78.19,1.68.28,2.7.28,2.07,0,3.68-.29,4.82-.86,1.14-.58,1.94-1.38,2.4-2.42.46-1.04.73-2.14.81-3.33.08-1.18.14-3.08.18-5.7-1.23,1.72-2.65,3.03-4.26,3.93s-3.53,1.35-5.76,1.35c-2.68,0-5.01-.68-7.02-2.05-2-1.37-3.54-3.28-4.61-5.74s-1.61-5.3-1.61-8.53c0-2.4.33-4.57.98-6.5s1.59-3.56,2.8-4.89,2.61-2.33,4.19-3,3.32-1.01,5.21-1.01c2.27,0,4.23.44,5.89,1.3,1.66.87,3.2,2.23,4.63,4.09v-1.08c0-1.39.34-2.46,1.03-3.22.68-.76,1.56-1.14,2.64-1.14,1.54,0,2.57.5,3.08,1.51s.76,2.46.76,4.35l-.03-.03Zm-23.17,10.14c0,3.24.71,5.69,2.12,7.35,1.42,1.66,3.25,2.49,5.49,2.49,1.33,0,2.58-.36,3.76-1.07s2.14-1.79,2.89-3.22c.74-1.44,1.11-3.18,1.11-5.23,0-3.26-.72-5.8-2.15-7.62s-3.33-2.72-5.67-2.72-4.12.87-5.49,2.61c-1.38,1.74-2.07,4.21-2.07,7.41h.01Z"/>
      <path d="m244.31,80.96v6.68c0,1.62-.38,2.84-1.14,3.65s-1.73,1.22-2.9,1.22-2.1-.41-2.84-1.23-1.11-2.03-1.11-3.63v-22.27c0-3.59,1.3-5.39,3.9-5.39,1.33,0,2.29.42,2.87,1.26.59.84.91,2.08.97,3.72.96-1.64,1.94-2.88,2.94-3.72,1.01-.84,2.35-1.26,4.03-1.26s3.31.42,4.89,1.26,2.37,1.95,2.37,3.34c0,.98-.34,1.78-1.01,2.42-.67.63-1.4.95-2.18.95-.29,0-1-.18-2.12-.54s-2.11-.54-2.97-.54c-1.17,0-2.13.31-2.87.92s-1.32,1.53-1.73,2.74c-.41,1.21-.69,2.65-.85,4.32s-.23,3.71-.23,6.11h-.02Z"/>
      <path d="m290.31,76.24c0,2.38-.37,4.58-1.11,6.59s-1.82,3.74-3.22,5.19c-1.41,1.45-3.09,2.55-5.04,3.33s-4.15,1.16-6.59,1.16-4.6-.39-6.53-1.17-3.61-1.9-5.02-3.35c-1.42-1.45-2.49-3.17-3.22-5.16-.73-1.98-1.1-4.17-1.1-6.58s.37-4.64,1.11-6.65,1.81-3.73,3.19-5.16c1.39-1.43,3.07-2.52,5.04-3.3,1.97-.77,4.15-1.16,6.53-1.16s4.62.39,6.59,1.17,3.66,1.89,5.07,3.34,2.48,3.16,3.21,5.16,1.1,4.19,1.1,6.59c0,0-.01,0-.01,0Zm-8.03,0c0-3.26-.72-5.8-2.15-7.62s-3.36-2.72-5.79-2.72c-1.56,0-2.94.41-4.13,1.22s-2.11,2.01-2.75,3.59-.97,3.43-.97,5.54.32,3.92.95,5.48c.63,1.56,1.54,2.76,2.72,3.59,1.18.83,2.57,1.25,4.17,1.25,2.42,0,4.35-.91,5.79-2.74,1.44-1.83,2.15-4.35,2.15-7.57v-.02h0Z"/>
      <path d="m301.59,64.96l5.21,17.87,4.75-16.61c.51-1.74.88-2.92,1.13-3.56.24-.63.7-1.24,1.38-1.82.67-.58,1.6-.86,2.77-.86s2.12.29,2.8.86c.67.58,1.15,1.2,1.42,1.88s.65,1.84,1.14,3.5l4.75,16.61,5.27-17.87c.35-1.29.63-2.22.85-2.8.21-.58.58-1.08,1.08-1.52s1.24-.66,2.2-.66,1.79.33,2.49,1c.7.66,1.05,1.45,1.05,2.34,0,.82-.3,2.06-.91,3.72l-6.53,19.16c-.57,1.62-1.01,2.79-1.32,3.52-.31.72-.81,1.37-1.48,1.93s-1.6.85-2.77.85-2.16-.3-2.86-.91c-.69-.6-1.21-1.35-1.54-2.23s-.69-2.02-1.08-3.43l-4.57-15.59-4.42,15.59c-.59,2.17-1.22,3.8-1.9,4.91s-1.88,1.66-3.6,1.66c-.88,0-1.63-.17-2.24-.51s-1.13-.83-1.54-1.46-.77-1.39-1.08-2.26-.56-1.56-.73-2.07l-6.47-19.16c-.64-1.8-.97-3.04-.97-3.72,0-.86.34-1.63,1.03-2.31.68-.68,1.52-1.03,2.52-1.03,1.33,0,2.23.38,2.7,1.13s.97,2.04,1.49,3.85h-.02,0Z"/>
      <path d="m345.83,60.69h.88v-4.8c0-1.29.03-2.3.1-3.03s.26-1.36.57-1.89c.31-.55.76-.99,1.35-1.33s1.24-.51,1.96-.51c1.02,0,1.93.38,2.75,1.14.55.51.89,1.13,1.04,1.86s.22,1.77.22,3.12v5.45h2.93c1.13,0,2,.27,2.59.81.6.54.89,1.23.89,2.07,0,1.07-.42,1.83-1.27,2.26-.85.43-2.07.64-3.65.64h-1.49v14.71c0,1.25.04,2.21.13,2.89s.32,1.22.7,1.64,1,.63,1.86.63c.47,0,1.1-.08,1.9-.25s1.43-.25,1.88-.25c.64,0,1.23.26,1.74.78.52.52.78,1.16.78,1.92,0,1.29-.7,2.28-2.11,2.96s-3.43,1.03-6.06,1.03-4.39-.42-5.68-1.26-2.13-2-2.53-3.49c-.4-1.48-.6-3.47-.6-5.95v-15.35h-1.05c-1.15,0-2.03-.27-2.64-.82-.61-.55-.91-1.24-.91-2.08s.32-1.53.95-2.07,1.56-.81,2.77-.81v-.02h0Z"/>
      <path d="m374.45,52.95v11.87c1.02-1.17,2.01-2.1,2.97-2.78.97-.68,2.04-1.2,3.21-1.54,1.17-.34,2.43-.51,3.78-.51,2.03,0,3.83.43,5.41,1.29,1.57.86,2.81,2.11,3.71,3.75.57.96.95,2.03,1.14,3.21.2,1.18.29,2.54.29,4.09v15.32c0,1.6-.37,2.81-1.1,3.63s-1.7,1.23-2.92,1.23c-2.64,0-3.96-1.62-3.96-4.86v-13.51c0-2.56-.38-4.53-1.14-5.9s-2.21-2.07-4.34-2.07c-1.43,0-2.71.41-3.85,1.22s-2,1.92-2.56,3.33c-.43,1.19-.64,3.31-.64,6.36v10.58c0,1.58-.36,2.79-1.07,3.62-.71.83-1.7,1.25-2.97,1.25-2.64,0-3.96-1.62-3.96-4.86v-34.69c0-1.62.35-2.84,1.04-3.65s1.67-1.22,2.92-1.22,2.26.41,2.97,1.23,1.07,2.03,1.07,3.63v-.02Z"/>
    </g>
    <g>
      <path class="cls-1" d="m81.42,76.83v10.63c0,1.68-.38,2.94-1.14,3.78s-1.77,1.26-3.02,1.26-2.19-.42-2.94-1.26c-.75-.84-1.13-2.1-1.13-3.78v-12.74c0-2.01-.07-3.57-.21-4.69-.14-1.11-.51-2.03-1.11-2.74-.61-.71-1.56-1.07-2.87-1.07-2.62,0-4.34.9-5.17,2.7-.83,1.8-1.25,4.38-1.25,7.73v10.81c0,1.66-.38,2.92-1.13,3.76-.75.85-1.74,1.27-2.97,1.27s-2.2-.42-2.97-1.27-1.16-2.1-1.16-3.76v-22.88c0-1.5.35-2.65,1.04-3.43.69-.78,1.61-1.17,2.74-1.17s2.01.37,2.74,1.1,1.1,1.74,1.1,3.03v.76c1.39-1.66,2.87-2.88,4.45-3.66,1.58-.78,3.34-1.17,5.27-1.17s3.74.4,5.19,1.2c1.45.8,2.64,2.01,3.57,3.63,1.35-1.64,2.79-2.86,4.34-3.65,1.54-.79,3.25-1.19,5.13-1.19,2.19,0,4.07.43,5.65,1.29s2.76,2.09,3.54,3.69c.68,1.45,1.03,3.72,1.03,6.83v15.62c0,1.68-.38,2.94-1.14,3.78s-1.77,1.26-3.02,1.26-2.2-.42-2.97-1.27c-.77-.85-1.16-2.1-1.16-3.76v-13.45c0-1.72-.07-3.1-.22-4.13-.15-1.04-.54-1.9-1.19-2.61s-1.62-1.05-2.93-1.05c-1.05,0-2.06.31-3,.94-.95.63-1.68,1.46-2.21,2.52-.59,1.35-.88,3.73-.88,7.15h0Z"/>
      <path class="cls-1" d="m130.23,78.21h-15.64c.02,1.82.39,3.42,1.1,4.8.71,1.39,1.66,2.43,2.84,3.13,1.18.7,2.49,1.05,3.91,1.05.96,0,1.83-.11,2.62-.34.79-.22,1.56-.58,2.3-1.05.74-.48,1.43-.99,2.05-1.54.62-.55,1.44-1.29,2.43-2.23.41-.35,1-.53,1.76-.53.82,0,1.48.22,1.99.67.51.45.76,1.08.76,1.9,0,.72-.28,1.57-.85,2.53-.57.97-1.42,1.89-2.56,2.78s-2.58,1.63-4.31,2.21-3.72.88-5.96.88c-5.14,0-9.13-1.46-11.98-4.39-2.85-2.93-4.28-6.9-4.28-11.92,0-2.36.35-4.56,1.05-6.58s1.73-3.75,3.08-5.2c1.35-1.45,3.01-2.55,4.98-3.33,1.97-.77,4.16-1.16,6.56-1.16,3.12,0,5.81.66,8.04,1.98,2.24,1.32,3.91,3.02,5.02,5.11,1.11,2.09,1.67,4.22,1.67,6.39,0,2.01-.58,3.32-1.73,3.91-1.15.6-2.77.89-4.86.89v.04h0Zm-15.64-4.54h14.5c-.2-2.73-.93-4.78-2.21-6.14-1.28-1.36-2.96-2.04-5.05-2.04s-3.63.69-4.91,2.07-2.06,3.41-2.33,6.11Z"/>
      <path class="cls-1" d="m144,60.69h.88v-4.8c0-1.29.03-2.3.1-3.03s.26-1.36.57-1.89c.31-.55.76-.99,1.35-1.33.59-.34,1.24-.51,1.96-.51,1.02,0,1.93.38,2.75,1.14.55.51.89,1.13,1.04,1.86s.22,1.77.22,3.12v5.45h2.93c1.13,0,2,.27,2.59.81.6.54.89,1.23.89,2.07,0,1.07-.42,1.83-1.27,2.26s-2.07.64-3.65.64h-1.49v14.71c0,1.25.04,2.21.13,2.89s.32,1.22.7,1.64c.38.42,1,.63,1.86.63.47,0,1.1-.08,1.9-.25.8-.17,1.43-.25,1.88-.25.64,0,1.23.26,1.74.78.52.52.78,1.16.78,1.92,0,1.29-.7,2.28-2.11,2.96s-3.43,1.03-6.06,1.03-4.39-.42-5.68-1.26-2.13-2-2.53-3.49c-.4-1.48-.6-3.47-.6-5.95v-15.35h-1.05c-1.15,0-2.03-.27-2.64-.82s-.91-1.24-.91-2.08.32-1.53.95-2.07c.63-.54,1.56-.81,2.77-.81v-.02h0Z"/>
      <path class="cls-1" d="m185.02,87.99c-1.93,1.5-3.8,2.63-5.61,3.38s-3.83,1.13-6.08,1.13c-2.05,0-3.85-.41-5.41-1.22s-2.75-1.91-3.59-3.3-1.26-2.89-1.26-4.51c0-2.19.69-4.05,2.08-5.6,1.39-1.54,3.29-2.58,5.71-3.11.51-.12,1.77-.38,3.78-.79s3.74-.79,5.17-1.13c1.44-.34,2.99-.76,4.67-1.25-.1-2.11-.52-3.66-1.27-4.64-.75-.99-2.31-1.48-4.67-1.48-2.03,0-3.56.28-4.58.85-1.03.57-1.9,1.42-2.64,2.55-.73,1.13-1.25,1.88-1.55,2.24s-.95.54-1.95.54c-.9,0-1.67-.29-2.33-.86-.65-.58-.98-1.31-.98-2.21,0-1.41.5-2.77,1.49-4.1,1-1.33,2.55-2.42,4.66-3.28s4.74-1.29,7.88-1.29c3.52,0,6.28.42,8.29,1.25s3.43,2.14,4.26,3.94,1.25,4.18,1.25,7.15v4.78c0,1.31-.02,2.76-.04,4.37,0,1.5.25,3.07.75,4.7s.75,2.68.75,3.15c0,.82-.39,1.57-1.16,2.24s-1.65,1.01-2.62,1.01c-.82,0-1.63-.39-2.43-1.16-.8-.77-1.65-1.89-2.55-3.35h-.02Zm-.53-11.57c-1.17.43-2.88.88-5.11,1.36-2.24.48-3.78.83-4.64,1.05s-1.68.66-2.46,1.32c-.78.65-1.17,1.57-1.17,2.74s.46,2.24,1.38,3.09,2.12,1.27,3.6,1.27c1.58,0,3.04-.35,4.38-1.04,1.34-.69,2.32-1.59,2.94-2.68.72-1.21,1.08-3.2,1.08-5.98v-1.14h0Z"/>
      <path class="cls-1" d="m229.08,65.84v23.23c0,2.66-.28,4.94-.85,6.86-.57,1.91-1.48,3.5-2.72,4.75-1.25,1.25-2.89,2.18-4.91,2.78s-4.54.91-7.54.91c-2.75,0-5.21-.39-7.38-1.16-2.17-.77-3.84-1.77-5.01-2.99s-1.76-2.48-1.76-3.76c0-.98.33-1.77,1-2.39.66-.62,1.46-.92,2.4-.92,1.17,0,2.2.52,3.08,1.55.43.53.87,1.06,1.33,1.6s.97,1,1.52,1.38,1.23.66,2.01.85c.78.19,1.68.28,2.7.28,2.07,0,3.68-.29,4.82-.86,1.14-.58,1.94-1.38,2.4-2.42.46-1.04.73-2.14.81-3.33.08-1.18.14-3.08.18-5.7-1.23,1.72-2.65,3.03-4.26,3.93s-3.53,1.35-5.76,1.35c-2.68,0-5.01-.68-7.02-2.05-2-1.37-3.54-3.28-4.61-5.74s-1.61-5.3-1.61-8.53c0-2.4.33-4.57.98-6.5s1.59-3.56,2.8-4.89,2.61-2.33,4.19-3,3.32-1.01,5.21-1.01c2.27,0,4.23.44,5.89,1.3,1.66.87,3.2,2.23,4.63,4.09v-1.08c0-1.39.34-2.46,1.03-3.22.68-.76,1.56-1.14,2.64-1.14,1.54,0,2.57.5,3.08,1.51s.76,2.46.76,4.35l-.03-.03Zm-23.17,10.14c0,3.24.71,5.69,2.12,7.35,1.42,1.66,3.25,2.49,5.49,2.49,1.33,0,2.58-.36,3.76-1.07s2.14-1.79,2.89-3.22c.74-1.44,1.11-3.18,1.11-5.23,0-3.26-.72-5.8-2.15-7.62s-3.33-2.72-5.67-2.72-4.12.87-5.49,2.61c-1.38,1.74-2.07,4.21-2.07,7.41h.01Z"/>
      <path class="cls-1" d="m244.31,80.96v6.68c0,1.62-.38,2.84-1.14,3.65s-1.73,1.22-2.9,1.22-2.1-.41-2.84-1.23-1.11-2.03-1.11-3.63v-22.27c0-3.59,1.3-5.39,3.9-5.39,1.33,0,2.29.42,2.87,1.26.59.84.91,2.08.97,3.72.96-1.64,1.94-2.88,2.94-3.72,1.01-.84,2.35-1.26,4.03-1.26s3.31.42,4.89,1.26,2.37,1.95,2.37,3.34c0,.98-.34,1.78-1.01,2.42-.67.63-1.4.95-2.18.95-.29,0-1-.18-2.12-.54s-2.11-.54-2.97-.54c-1.17,0-2.13.31-2.87.92s-1.32,1.53-1.73,2.74c-.41,1.21-.69,2.65-.85,4.32s-.23,3.71-.23,6.11h-.02Z"/>
      <path class="cls-1" d="m290.31,76.24c0,2.38-.37,4.58-1.11,6.59s-1.82,3.74-3.22,5.19c-1.41,1.45-3.09,2.55-5.04,3.33s-4.15,1.16-6.59,1.16-4.6-.39-6.53-1.17-3.61-1.9-5.02-3.35c-1.42-1.45-2.49-3.17-3.22-5.16-.73-1.98-1.1-4.17-1.1-6.58s.37-4.64,1.11-6.65,1.81-3.73,3.19-5.16c1.39-1.43,3.07-2.52,5.04-3.3,1.97-.77,4.15-1.16,6.53-1.16s4.62.39,6.59,1.17,3.66,1.89,5.07,3.34,2.48,3.16,3.21,5.16,1.1,4.19,1.1,6.59c0,0-.01,0-.01,0Zm-8.03,0c0-3.26-.72-5.8-2.15-7.62s-3.36-2.72-5.79-2.72c-1.56,0-2.94.41-4.13,1.22s-2.11,2.01-2.75,3.59-.97,3.43-.97,5.54.32,3.92.95,5.48c.63,1.56,1.54,2.76,2.72,3.59,1.18.83,2.57,1.25,4.17,1.25,2.42,0,4.35-.91,5.79-2.74,1.44-1.83,2.15-4.35,2.15-7.57v-.02h0Z"/>
      <path class="cls-1" d="m301.59,64.96l5.21,17.87,4.75-16.61c.51-1.74.88-2.92,1.13-3.56.24-.63.7-1.24,1.38-1.82.67-.58,1.6-.86,2.77-.86s2.12.29,2.8.86c.67.58,1.15,1.2,1.42,1.88s.65,1.84,1.14,3.5l4.75,16.61,5.27-17.87c.35-1.29.63-2.22.85-2.8.21-.58.58-1.08,1.08-1.52s1.24-.66,2.2-.66,1.79.33,2.49,1c.7.66,1.05,1.45,1.05,2.34,0,.82-.3,2.06-.91,3.72l-6.53,19.16c-.57,1.62-1.01,2.79-1.32,3.52-.31.72-.81,1.37-1.48,1.93s-1.6.85-2.77.85-2.16-.3-2.86-.91c-.69-.6-1.21-1.35-1.54-2.23s-.69-2.02-1.08-3.43l-4.57-15.59-4.42,15.59c-.59,2.17-1.22,3.8-1.9,4.91s-1.88,1.66-3.6,1.66c-.88,0-1.63-.17-2.24-.51s-1.13-.83-1.54-1.46-.77-1.39-1.08-2.26-.56-1.56-.73-2.07l-6.47-19.16c-.64-1.8-.97-3.04-.97-3.72,0-.86.34-1.63,1.03-2.31.68-.68,1.52-1.03,2.52-1.03,1.33,0,2.23.38,2.7,1.13s.97,2.04,1.49,3.85h-.02,0Z"/>
      <path class="cls-1" d="m345.83,60.69h.88v-4.8c0-1.29.03-2.3.1-3.03s.26-1.36.57-1.89c.31-.55.76-.99,1.35-1.33s1.24-.51,1.96-.51c1.02,0,1.93.38,2.75,1.14.55.51.89,1.13,1.04,1.86s.22,1.77.22,3.12v5.45h2.93c1.13,0,2,.27,2.59.81.6.54.89,1.23.89,2.07,0,1.07-.42,1.83-1.27,2.26-.85.43-2.07.64-3.65.64h-1.49v14.71c0,1.25.04,2.21.13,2.89s.32,1.22.7,1.64,1,.63,1.86.63c.47,0,1.1-.08,1.9-.25s1.43-.25,1.88-.25c.64,0,1.23.26,1.74.78.52.52.78,1.16.78,1.92,0,1.29-.7,2.28-2.11,2.96s-3.43,1.03-6.06,1.03-4.39-.42-5.68-1.26-2.13-2-2.53-3.49c-.4-1.48-.6-3.47-.6-5.95v-15.35h-1.05c-1.15,0-2.03-.27-2.64-.82-.61-.55-.91-1.24-.91-2.08s.32-1.53.95-2.07,1.56-.81,2.77-.81v-.02h0Z"/>
      <path class="cls-1" d="m374.45,52.95v11.87c1.02-1.17,2.01-2.1,2.97-2.78.97-.68,2.04-1.2,3.21-1.54,1.17-.34,2.43-.51,3.78-.51,2.03,0,3.83.43,5.41,1.29,1.57.86,2.81,2.11,3.71,3.75.57.96.95,2.03,1.14,3.21.2,1.18.29,2.54.29,4.09v15.32c0,1.6-.37,2.81-1.1,3.63s-1.7,1.23-2.92,1.23c-2.64,0-3.96-1.62-3.96-4.86v-13.51c0-2.56-.38-4.53-1.14-5.9s-2.21-2.07-4.34-2.07c-1.43,0-2.71.41-3.85,1.22s-2,1.92-2.56,3.33c-.43,1.19-.64,3.31-.64,6.36v10.58c0,1.58-.36,2.79-1.07,3.62-.71.83-1.7,1.25-2.97,1.25-2.64,0-3.96-1.62-3.96-4.86v-34.69c0-1.62.35-2.84,1.04-3.65s1.67-1.22,2.92-1.22,2.26.41,2.97,1.23,1.07,2.03,1.07,3.63v-.02Z"/>
    </g>
  </g>
</svg>